<?xml version="1.0" encoding="UTF-8" standalone="no"?>
<svg 
  version="1.1" 
  xmlns="http://www.w3.org/2000/svg" 
  xmlns:xlink="http://www.w3.org/1999/xlink" 
  xmlns:svg="http://www.w3.org/2000/svg"
  xmlns:rdf="http://www.w3.org/1999/02/22-rdf-syntax-ns#"
  xmlns:cc="http://creativecommons.org/ns#"
  xmlns:dc="http://purl.org/dc/elements/1.1/"
  viewBox="0 0 808 713"
  width="808"
  height="713"
>
<style>svg {background-color: white; }</style>"
<metadata id="metadata1">
Created by https://svgstud.io and licensed under CC-BY-SA 4.0 license. Please attribute https://svgstud.io
</metadata>
<metadata id="prompt">
IT administration company that serves small and medium sized companies in tamilnadu chennai, vector illustration, monochrome
</metadata>
<metadata id="version">
7
</metadata>
<metadata id="metadata2">
<rdf:RDF>
<cc:Work
    rdf:about="">
    <cc:license
    rdf:resource="http://creativecommons.org/licenses/by-sa/4.0/" />
    <dc:creator>
        <cc:Agent>
            <dc:title>https://svgstud.io</dc:title>
        </cc:Agent>
    </dc:creator>
</cc:Work>
<cc:License
    rdf:about="http://creativecommons.org/licenses/by-sa/4.0/">
    <cc:permits
    rdf:resource="http://creativecommons.org/ns#Reproduction" />
    <cc:permits
    rdf:resource="http://creativecommons.org/ns#Distribution" />
    <cc:requires
    rdf:resource="http://creativecommons.org/ns#Notice" />
    <cc:requires
    rdf:resource="http://creativecommons.org/ns#Attribution" />
    <cc:permits
    rdf:resource="http://creativecommons.org/ns#DerivativeWorks" />
    <cc:requires
    rdf:resource="http://creativecommons.org/ns#ShareAlike" />
</cc:License>
</rdf:RDF>
</metadata>
<metadata id="uid">
e138cbc9321268f8b08fc53fcbe265016f90a2702deeea92e4690212f8fbe02b
</metadata>
<path stroke="none" fill="black" fill-rule="evenodd" d="M382.28,659.93C381.85,659.90 379.25,659.26 376.50,658.52C373.75,657.77 358.00,652.67 341.50,647.18C325.00,641.68 299.80,633.81 285.50,629.69C271.20,625.56 248.93,619.24 236.00,615.63C223.07,612.02 194.72,604.53 173.00,598.98C151.28,593.42 129.45,587.75 124.50,586.37C119.55,584.99 114.49,583.20 113.25,582.40C111.00,580.95 111.00,580.95 111.00,530.72C111.00,482.52 110.92,480.43 109.11,479.30C108.07,478.65 106.94,478.39 106.61,478.73C106.27,479.06 106.00,484.21 106.00,490.17C106.00,498.76 105.71,501.00 104.61,501.00C103.84,501.00 97.96,499.67 91.54,498.05C85.11,496.43 78.43,494.27 76.68,493.25C74.94,492.23 72.52,489.93 71.32,488.14C69.13,484.89 69.13,484.89 68.81,319.70C68.64,228.84 68.72,138.07 69.00,118.00C69.50,81.50 69.50,81.50 72.10,75.95C73.53,72.90 76.23,68.67 78.10,66.53C79.97,64.40 83.75,61.23 86.50,59.49C89.25,57.74 93.65,55.50 96.27,54.51C98.90,53.52 101.29,52.95 101.58,53.25C101.88,53.54 99.36,55.46 96.00,57.50C92.63,59.55 87.65,63.45 84.92,66.17C82.20,68.90 78.74,73.46 77.24,76.31C74.50,81.50 74.50,81.50 74.67,121.50C74.80,152.06 75.21,163.94 76.41,171.84C77.27,177.53 78.50,183.94 79.15,186.09C79.79,188.24 80.65,190.00 81.05,190.00C81.45,190.00 82.05,188.54 82.38,186.75C82.71,184.96 83.43,179.22 83.97,174.00C84.52,168.78 84.98,148.97 84.99,130.00C85.00,111.03 85.44,91.81 85.96,87.31C86.48,82.80 87.80,77.36 88.89,75.21C89.99,73.06 93.40,69.01 96.47,66.20C99.54,63.40 105.07,59.61 108.75,57.80C114.55,54.94 116.65,54.46 124.47,54.18C130.35,53.97 146.58,55.29 171.00,57.96C191.62,60.22 219.97,63.18 234.00,64.55C248.03,65.93 283.80,69.72 313.50,72.99C343.20,76.27 374.25,79.65 382.50,80.52C390.75,81.39 400.13,82.82 403.34,83.71C406.55,84.59 411.72,86.96 414.84,88.98C417.95,91.00 422.03,94.39 423.89,96.52C425.76,98.65 428.23,102.45 429.39,104.95C431.33,109.16 431.48,111.26 431.49,133.00C431.50,156.50 431.50,156.50 423.50,156.20C419.10,156.03 408.30,155.22 399.50,154.39C390.70,153.56 380.12,152.61 376.00,152.28C368.50,151.69 368.50,151.69 371.79,154.46C373.59,155.99 375.67,158.42 376.40,159.87C377.20,161.45 378.00,168.27 378.42,176.93C378.80,184.87 379.32,191.70 379.57,192.12C379.83,192.53 382.62,191.66 385.77,190.19C391.16,187.66 392.35,187.50 406.00,187.50C417.64,187.50 421.57,187.87 425.93,189.39C428.92,190.43 432.87,192.17 434.71,193.26C436.56,194.35 439.33,197.10 440.88,199.37C442.42,201.64 444.48,205.75 445.44,208.50C446.40,211.25 447.43,217.62 447.72,222.66C448.02,227.70 447.99,232.87 447.66,234.16C447.34,235.45 444.91,238.84 442.28,241.71C438.32,246.02 436.39,247.25 431.00,248.89C427.43,249.97 422.36,251.17 419.74,251.55C417.12,251.92 414.71,252.66 414.39,253.18C414.06,253.71 414.04,254.37 414.33,254.67C414.63,254.96 416.51,254.66 418.52,253.99C420.99,253.18 424.34,253.04 428.84,253.56C435.50,254.34 435.50,254.34 430.92,255.06C428.40,255.46 424.53,256.71 422.33,257.83C420.12,258.96 416.83,261.56 415.03,263.62C413.23,265.67 411.17,268.75 410.46,270.45C409.75,272.15 408.46,277.26 407.60,281.80C406.74,286.34 405.77,294.88 405.45,300.77C405.11,307.04 405.27,312.08 405.84,312.90C406.37,313.66 407.48,314.03 408.32,313.71C409.27,313.34 410.46,310.20 411.49,305.31C412.41,301.02 414.23,293.73 415.56,289.11C416.88,284.50 419.25,278.44 420.83,275.64C422.57,272.57 425.55,269.28 428.36,267.35C430.99,265.53 435.50,263.62 438.74,262.95C441.96,262.28 447.04,262.03 450.39,262.38C453.65,262.72 457.71,263.80 459.41,264.79C461.11,265.77 463.32,268.13 464.32,270.03C465.72,272.71 466.01,274.87 465.59,279.50C465.30,282.80 462.92,293.15 460.32,302.50C457.56,312.37 455.57,321.60 455.57,324.50C455.57,328.03 457.84,336.47 463.28,353.16C467.53,366.17 471.00,377.50 471.00,378.33C471.00,379.16 469.54,380.31 467.75,380.88C465.96,381.45 456.85,383.30 447.50,384.99C438.15,386.68 429.46,388.29 428.19,388.57C426.48,388.94 425.95,389.65 426.19,391.29C426.43,393.00 427.06,393.43 429.00,393.19C430.38,393.01 442.75,390.86 456.50,388.39C470.25,385.93 484.14,383.23 487.36,382.40C490.58,381.57 493.41,381.08 493.64,381.31C493.87,381.53 493.56,383.02 492.96,384.61C492.36,386.19 491.47,390.19 491.00,393.49C490.52,396.80 488.07,405.51 485.56,412.86C483.04,420.20 480.14,427.40 479.10,428.86C478.07,430.31 476.04,434.40 474.61,437.93C473.17,441.47 471.35,445.34 470.57,446.53C469.15,448.70 469.15,448.70 454.83,446.00C446.95,444.51 435.22,442.21 428.76,440.90C422.30,439.58 417.01,438.14 417.01,437.69C417.00,437.25 418.93,436.03 421.29,434.99C423.65,433.95 428.18,432.69 431.37,432.19C435.59,431.52 438.97,431.66 443.83,432.70C447.89,433.57 454.47,434.00 460.65,433.81C468.94,433.56 471.18,433.15 472.90,431.60C474.05,430.55 475.00,429.02 475.00,428.20C475.00,426.92 473.66,426.82 465.75,427.54C460.66,428.00 454.02,428.37 451.00,428.37C447.98,428.36 441.19,427.99 435.91,427.54C426.33,426.72 426.33,426.72 417.97,430.33C409.62,433.95 409.62,433.95 399.62,429.42C394.12,426.94 386.50,424.04 382.70,422.98C376.73,421.33 375.34,421.25 372.64,422.38C370.91,423.10 367.02,424.27 364.00,424.98C360.98,425.69 356.25,427.39 353.50,428.75C350.75,430.11 347.04,432.32 345.25,433.66C343.46,435.00 342.00,436.75 342.00,437.55C342.00,438.35 342.23,439.00 342.52,439.00C342.81,439.00 347.00,437.01 351.84,434.58C356.68,432.15 363.29,429.39 366.54,428.45C371.55,426.99 373.36,426.91 378.73,427.89C382.19,428.53 386.14,429.56 387.51,430.19C388.88,430.81 390.00,431.69 390.00,432.14C390.00,432.59 388.20,433.88 386.00,435.00C382.50,436.79 380.85,436.96 372.75,436.42C366.14,435.97 362.64,436.17 360.50,437.10C357.65,438.34 357.91,438.43 366.00,439.04C370.68,439.39 375.85,440.02 377.50,440.45C379.15,440.87 382.30,441.80 384.50,442.50C386.70,443.20 392.59,444.33 397.60,445.01C405.82,446.12 406.95,446.08 409.33,444.52C411.97,442.79 411.97,442.79 410.92,445.80C410.18,447.92 410.19,450.00 410.96,452.86C411.56,455.09 412.49,457.18 413.02,457.51C413.55,457.84 414.74,456.51 415.68,454.55C416.61,452.60 417.76,451.00 418.24,451.00C418.71,451.00 419.57,452.35 420.15,454.00C420.73,455.65 421.67,457.00 422.25,457.00C422.84,457.00 424.79,455.88 426.59,454.50C428.39,453.12 430.52,452.00 431.32,452.00C432.49,452.00 432.67,453.24 432.25,458.48C431.89,462.91 432.13,465.45 432.99,466.48C433.68,467.32 434.64,468.00 435.12,468.00C435.61,468.00 436.00,466.51 436.00,464.70C436.00,462.66 437.24,459.49 439.23,456.45C442.46,451.50 442.46,451.50 443.03,458.57C443.46,463.83 444.22,466.51 446.05,469.07C448.50,472.50 448.50,472.50 449.20,466.15C449.59,462.66 450.07,459.28 450.28,458.65C450.49,458.02 451.90,459.47 453.41,461.86C456.16,466.22 456.16,466.22 458.89,463.61C460.38,462.17 461.91,461.00 462.28,461.00C462.66,461.00 463.82,462.69 464.87,464.75C465.93,466.81 467.74,469.36 468.89,470.41C471.00,472.31 471.00,472.31 470.34,463.00C469.84,455.98 469.97,453.86 470.85,454.41C471.50,454.81 472.88,456.79 473.92,458.82C474.95,460.84 477.50,464.19 479.58,466.27C482.34,469.01 483.58,469.69 484.17,468.77C484.61,468.07 484.98,466.66 484.98,465.63C485.00,464.08 485.26,463.97 486.50,465.00C487.35,465.71 488.00,465.81 488.00,465.24C488.00,464.68 485.98,460.69 483.51,456.37C481.04,452.04 479.01,447.93 479.01,447.22C479.00,446.26 479.77,446.34 482.11,447.56C483.83,448.45 485.59,448.79 486.02,448.34C486.46,447.88 485.97,444.80 484.92,441.50C483.88,438.20 483.02,434.94 483.01,434.25C483.01,433.56 483.41,433.00 483.91,433.00C484.40,433.00 486.70,434.57 489.00,436.50C491.63,438.70 494.25,440.00 496.04,440.00C497.60,440.00 499.10,439.64 499.38,439.20C499.65,438.76 498.28,436.40 496.34,433.95C494.40,431.50 492.18,428.28 491.40,426.80C490.63,425.31 490.00,423.18 490.00,422.05C490.00,420.92 490.34,420.01 490.75,420.03C491.16,420.05 492.37,420.72 493.44,421.53C494.51,422.34 496.61,423.00 498.11,423.00C499.61,423.00 501.55,422.73 502.42,422.39C503.64,421.92 503.10,421.13 500.04,418.91C497.86,417.33 495.35,414.65 494.47,412.94C493.03,410.16 493.02,409.61 494.40,407.52C495.24,406.23 497.77,403.90 500.03,402.34C502.28,400.78 508.15,396.43 513.06,392.69C517.98,388.94 522.00,385.62 522.00,385.31C522.00,385.00 519.69,385.05 516.86,385.42C514.04,385.80 508.79,387.44 505.20,389.06C501.62,390.69 498.50,391.83 498.27,391.61C498.05,391.38 498.79,389.37 499.93,387.14C501.07,384.91 502.00,382.41 502.00,381.58C502.00,380.76 504.36,377.71 507.25,374.79C510.14,371.88 516.33,367.20 521.00,364.38C525.67,361.57 530.51,358.95 531.75,358.56C532.99,358.18 534.00,357.45 534.00,356.95C534.00,356.45 532.90,355.76 531.56,355.43C530.23,355.09 526.40,354.97 523.06,355.16C519.73,355.35 517.00,355.19 517.00,354.81C517.00,354.43 518.83,352.01 521.06,349.43C523.77,346.30 524.79,344.39 524.13,343.73C523.47,343.07 521.86,343.40 519.32,344.71C516.45,346.19 514.68,348.25 512.20,353.02C510.38,356.51 507.35,361.09 505.45,363.19C503.55,365.29 502.00,366.65 502.00,366.21C502.00,365.78 502.62,362.96 503.38,359.96C504.14,356.96 505.06,352.07 505.43,349.10C505.80,346.14 506.97,342.02 508.02,339.96C509.07,337.90 511.78,334.63 514.04,332.69C516.31,330.76 521.38,327.98 525.33,326.52C529.27,325.07 535.94,321.86 540.15,319.40C544.36,316.94 549.62,313.61 551.83,312.01C555.28,309.51 555.97,308.39 556.56,304.29C556.94,301.66 557.87,297.98 558.62,296.13C559.38,294.27 560.00,292.43 560.00,292.04C560.00,291.64 558.31,290.83 556.25,290.23C554.19,289.63 548.49,288.35 543.58,287.40C537.98,286.31 533.95,284.95 532.76,283.76C530.99,281.99 530.97,281.69 532.45,279.68C533.33,278.48 534.70,276.15 535.48,274.50C536.84,271.63 536.78,271.39 533.94,269.00C532.31,267.62 530.99,265.69 530.99,264.70C531.00,263.60 532.17,262.49 534.00,261.85C535.65,261.27 537.00,260.44 537.00,259.98C537.00,259.53 537.25,258.51 537.56,257.71C537.94,256.72 536.35,255.26 532.56,253.12C529.50,251.39 527.00,249.53 527.00,248.98C527.00,248.42 528.33,247.16 529.95,246.18C531.57,245.19 534.76,241.59 537.05,238.17C541.04,232.19 541.14,231.86 539.60,229.51C538.72,228.17 538.00,226.57 538.00,225.97C538.00,225.36 539.07,223.43 540.39,221.68C541.70,219.93 543.73,216.59 544.91,214.25C546.28,211.51 546.82,209.12 546.41,207.50C546.07,206.13 546.06,203.88 546.41,202.51C546.80,200.95 548.51,199.27 551.00,198.00C553.18,196.89 558.68,195.07 563.23,193.96C567.78,192.86 576.68,191.67 583.00,191.33C591.84,190.86 596.46,191.11 602.92,192.42C607.54,193.36 614.13,195.40 617.57,196.96C621.01,198.52 625.89,201.70 628.41,204.02C631.04,206.44 634.36,211.01 636.17,214.69C638.67,219.77 639.43,222.78 639.79,228.97C640.05,233.46 639.71,239.09 638.99,242.15C638.30,245.09 636.52,250.20 635.03,253.50C633.54,256.80 629.09,264.66 625.13,270.96C621.17,277.26 617.66,283.52 617.32,284.87C616.98,286.21 617.22,288.03 617.85,288.90C618.47,289.78 620.55,293.50 622.46,297.16C624.37,300.82 627.23,304.74 628.83,305.88C630.42,307.01 635.55,309.32 640.24,311.02C644.92,312.71 649.60,314.72 650.63,315.48C652.19,316.63 652.26,316.94 651.00,317.39C650.17,317.68 646.41,319.07 642.62,320.47C638.84,321.86 632.92,325.02 629.47,327.49C626.02,329.95 620.86,334.56 618.02,337.73C615.17,340.90 610.45,347.10 607.53,351.50C604.61,355.90 600.65,362.65 598.72,366.50C596.80,370.35 593.63,378.23 591.67,384.00C589.71,389.77 587.36,398.55 586.44,403.50C585.27,409.84 584.93,415.46 585.29,422.50C585.58,428.00 586.54,435.20 587.44,438.50C588.33,441.80 592.43,451.25 596.54,459.50C600.73,467.89 604.13,476.04 604.26,478.00C604.48,481.24 604.27,481.52 601.41,481.80C599.71,481.97 592.91,481.18 586.30,480.05C579.69,478.92 572.89,478.00 571.20,478.00C569.50,478.00 567.86,478.41 567.55,478.92C567.24,479.43 567.68,480.54 568.54,481.39C569.39,482.25 571.87,483.41 574.05,483.97C576.22,484.54 579.75,485.45 581.89,486.01C584.03,486.56 590.40,487.67 596.05,488.46C602.89,489.42 606.92,489.58 608.12,488.93C609.12,488.40 610.41,486.20 610.99,484.05C611.72,481.31 611.72,478.70 610.98,475.32C610.40,472.67 607.04,464.56 603.51,457.31C599.98,450.06 596.39,441.43 595.54,438.14C594.69,434.86 593.71,428.82 593.36,424.72C593.00,420.48 593.25,413.71 593.94,408.98C594.61,404.42 596.28,396.82 597.64,392.09C599.01,387.37 602.33,379.00 605.00,373.50C607.68,368.00 611.79,360.57 614.12,357.00C616.46,353.43 622.45,346.41 627.44,341.40C634.47,334.34 638.18,331.48 644.00,328.65C649.29,326.06 653.88,324.67 659.60,323.92C665.38,323.15 669.38,323.15 673.52,323.92C676.73,324.51 680.35,325.66 681.59,326.46C682.82,327.27 684.12,329.29 684.49,330.95C685.02,333.39 683.26,338.36 675.16,357.26C669.67,370.08 662.46,389.15 659.14,399.63C655.83,410.11 651.70,424.27 649.97,431.09C648.25,437.92 645.53,449.98 643.92,457.91C642.31,465.83 641.00,474.08 641.00,476.24C641.00,478.93 641.39,480.04 642.25,479.76C642.94,479.53 644.99,473.76 646.82,466.93C648.64,460.09 652.39,445.95 655.14,435.50C657.88,425.05 661.69,410.97 663.59,404.20C665.50,397.44 668.86,387.37 671.07,381.82C673.28,376.26 675.95,370.10 677.00,368.11C678.05,366.13 678.93,365.11 678.96,365.85C678.98,366.59 677.67,371.77 676.05,377.35C674.42,382.93 672.43,391.32 671.62,396.00C670.81,400.68 669.43,411.25 668.56,419.50C667.68,427.75 666.53,438.32 665.99,443.00C665.46,447.68 664.46,452.96 663.79,454.75C662.77,457.46 662.81,458.24 664.08,459.51C664.91,460.34 668.72,461.68 672.55,462.48C676.37,463.29 682.09,464.24 685.25,464.60C691.01,465.26 691.01,465.26 690.75,317.38C690.50,169.50 690.50,169.50 688.00,169.71C686.62,169.82 676.27,170.62 665.00,171.48C653.73,172.35 636.62,173.38 627.00,173.78C609.50,174.50 609.50,174.50 609.19,179.00C609.01,181.47 608.47,183.91 607.97,184.41C607.44,184.96 606.66,184.23 606.04,182.60C605.47,181.10 605.01,177.54 605.02,174.68C605.02,171.83 605.40,168.92 605.84,168.22C606.37,167.39 611.89,166.43 621.58,165.51C629.79,164.72 649.04,163.30 664.36,162.36C687.48,160.92 693.66,160.84 700.70,161.86C705.36,162.53 714.13,164.36 720.18,165.92C726.23,167.47 731.92,169.50 732.84,170.41C734.34,171.91 734.53,177.59 734.82,229.90C735.14,287.73 735.14,287.73 754.42,288.21C765.02,288.48 774.21,289.01 774.85,289.41C775.71,289.94 776.00,321.34 776.00,412.90C776.00,532.64 775.95,535.73 774.08,537.42C773.03,538.38 762.86,543.17 751.48,548.08C737.26,554.21 729.59,557.00 726.92,557.00C724.79,557.00 715.10,555.42 705.40,553.49C695.69,551.56 685.67,549.38 683.12,548.64C678.50,547.29 678.50,547.29 678.24,508.15C677.99,471.51 677.86,469.00 676.21,469.00C675.07,469.00 673.57,470.84 671.95,474.22C670.13,478.03 668.23,480.20 664.97,482.21C662.51,483.72 655.02,486.96 648.32,489.39C641.62,491.82 631.94,495.04 626.82,496.55C621.69,498.06 615.59,500.11 613.25,501.11C610.24,502.40 609.00,503.52 609.00,504.96C609.00,506.31 609.66,507.00 610.93,507.00C611.99,507.00 618.85,505.62 626.18,503.93C633.51,502.25 641.12,500.62 643.10,500.32C645.83,499.91 646.85,500.17 647.32,501.38C647.68,502.33 647.11,503.75 645.92,504.86C644.81,505.90 640.98,507.98 637.41,509.50C631.38,512.06 631.03,512.38 632.49,513.98C633.35,514.93 633.78,516.41 633.45,517.27C633.12,518.13 630.48,520.04 627.59,521.50C624.45,523.09 621.15,524.03 619.41,523.83C617.26,523.59 616.42,522.90 616.17,521.19C615.89,519.20 615.36,518.93 612.17,519.19C608.50,519.50 608.50,519.50 608.50,530.46C608.50,541.42 608.50,541.42 623.48,543.23C631.71,544.22 643.21,546.11 649.01,547.42C654.82,548.72 661.21,550.48 663.22,551.32C665.25,552.17 667.51,554.10 668.32,555.67C669.11,557.23 670.08,560.38 670.46,562.67C671.03,566.14 670.80,567.20 669.08,568.92C667.93,570.07 665.85,571.00 664.43,571.00C663.02,571.00 660.89,570.48 659.68,569.84C658.48,569.20 656.95,567.96 656.28,567.09C655.61,566.21 655.05,564.10 655.03,562.39C655.00,559.32 654.94,559.28 648.75,558.70C645.31,558.37 637.62,556.92 631.66,555.48C625.69,554.04 620.64,553.03 620.43,553.24C620.22,553.45 622.23,555.29 624.90,557.32C627.56,559.36 631.84,563.26 634.39,565.99C636.95,568.72 639.30,572.27 639.62,573.87C640.07,576.09 641.12,577.14 644.12,578.32C647.04,579.46 648.44,580.80 649.59,583.55C650.60,585.98 650.91,588.57 650.49,591.06C650.14,593.16 648.78,596.03 647.47,597.44C645.47,599.60 644.22,600.00 639.50,600.00C634.90,600.00 633.48,599.57 631.45,597.55C629.78,595.87 629.00,593.98 629.00,591.56C629.00,589.62 629.56,585.94 630.24,583.40C631.48,578.76 631.48,578.76 626.36,574.05C623.54,571.46 617.70,567.51 613.37,565.26C609.04,563.02 604.60,561.03 603.50,560.84C601.59,560.51 601.48,561.19 601.00,576.48C600.50,592.43 600.50,592.46 598.00,593.32C596.48,593.84 594.43,593.76 592.75,593.11C590.00,592.05 590.00,592.05 590.00,574.02C590.00,557.52 589.85,556.00 588.25,556.00C587.29,556.01 580.88,559.58 574.00,563.94C567.12,568.30 559.31,573.82 556.64,576.19C551.77,580.51 551.77,580.51 552.88,584.51C553.49,586.70 553.99,590.18 553.99,592.23C554.00,594.91 553.22,596.84 551.25,599.02C549.50,600.96 547.16,602.28 544.81,602.66C542.77,602.98 539.10,602.94 536.65,602.57C534.05,602.19 531.11,600.90 529.60,599.50C527.62,597.67 527.00,596.12 527.00,593.02C527.00,590.77 527.61,587.47 528.36,585.67C529.11,583.88 531.17,581.19 532.94,579.70C534.71,578.22 536.68,577.00 537.33,577.00C537.97,577.00 541.02,574.18 544.09,570.74C547.17,567.30 551.45,563.30 553.59,561.85C555.74,560.40 559.46,558.01 561.84,556.53C564.23,555.06 566.01,553.68 565.80,553.46C565.58,553.25 563.18,553.67 560.45,554.39C557.73,555.12 552.25,557.10 548.28,558.80C544.30,560.50 538.45,562.37 535.28,562.95C532.10,563.54 527.25,564.12 524.50,564.26C519.50,564.50 519.50,564.50 519.33,579.50C519.24,587.75 519.12,595.02 519.08,595.66C519.04,596.30 517.01,598.07 514.58,599.61C511.50,601.56 509.99,603.28 509.58,605.33C509.26,606.93 509.00,609.78 509.00,611.64C509.00,614.37 508.39,615.40 505.84,616.95C504.11,618.00 496.35,621.37 488.59,624.43C480.84,627.49 453.93,636.75 428.78,645.00C403.64,653.25 382.71,659.97 382.28,659.93zM374.00,648.69C376.48,648.45 387.27,645.52 398.00,642.19C408.73,638.85 435.67,630.01 457.87,622.53C480.07,615.06 499.08,608.49 500.12,607.94C501.92,606.97 502.00,604.88 502.00,557.46C502.00,513.70 501.82,508.00 500.47,508.00C499.63,508.00 497.38,508.65 495.48,509.44C492.02,510.89 492.02,510.89 491.76,554.56C491.50,598.23 491.50,598.23 480.50,602.03C474.45,604.12 453.38,611.08 433.67,617.49C413.96,623.90 397.20,628.91 396.42,628.61C395.22,628.15 395.00,621.11 395.00,584.09C395.00,557.40 394.63,539.89 394.05,539.53C393.53,539.21 389.54,540.12 385.20,541.56C377.53,544.09 377.14,544.12 372.03,542.60C369.13,541.74 366.29,541.32 365.72,541.68C365.01,542.11 364.89,558.80 365.34,594.41C365.95,642.42 366.13,646.60 367.75,647.82C368.84,648.63 371.20,648.96 374.00,648.69zM449.50,595.55C452.25,595.36 457.54,593.98 461.25,592.49C467.73,589.90 468.00,589.65 468.00,586.39C468.00,583.82 467.58,583.00 466.25,583.01C465.29,583.02 461.57,583.96 458.00,585.10C454.43,586.25 447.23,587.48 442.00,587.84C433.19,588.45 432.48,588.66 432.19,590.71C431.95,592.34 432.48,593.07 434.19,593.47C435.46,593.77 438.30,594.44 440.50,594.96C442.70,595.49 446.75,595.75 449.50,595.55zM541.48,595.00C543.32,595.00 545.55,594.73 546.42,594.39C547.29,594.06 548.00,593.21 548.00,592.50C548.00,591.79 547.29,590.94 546.42,590.61C545.55,590.27 543.58,590.00 542.04,590.00C540.50,590.00 538.70,590.66 538.04,591.46C537.37,592.26 537.12,593.38 537.47,593.96C537.83,594.53 539.63,595.00 541.48,595.00zM445.28,567.90C450.63,567.98 453.76,567.35 460.03,564.93C467.84,561.92 468.00,561.79 468.00,558.43C468.00,555.83 467.58,555.00 466.25,555.01C465.29,555.02 462.25,555.70 459.50,556.54C456.75,557.37 449.77,558.99 444.00,560.14C438.23,561.28 432.66,562.66 431.64,563.20C430.39,563.87 430.11,564.51 430.80,565.20C431.36,565.76 433.32,566.57 435.16,567.00C437.00,567.44 441.55,567.84 445.28,567.90zM445.57,543.90C449.66,543.97 454.06,543.18 459.02,541.49C463.07,540.11 466.75,538.43 467.18,537.74C467.61,537.06 467.98,535.21 467.98,533.64C468.00,531.62 467.60,530.94 466.62,531.32C465.86,531.61 462.20,532.78 458.49,533.93C454.79,535.07 449.22,536.25 446.13,536.55C443.03,536.85 438.59,537.32 436.25,537.61C432.98,538.00 432.00,538.55 432.00,539.96C432.00,541.24 433.14,542.10 435.75,542.80C437.81,543.35 442.23,543.84 445.57,543.90zM375.80,534.91C376.52,534.96 382.37,533.62 388.80,531.94C395.24,530.25 411.52,525.77 425.00,521.99C438.48,518.21 463.00,511.29 479.50,506.63C496.00,501.97 515.12,496.74 522.00,495.01C528.88,493.29 535.05,491.34 535.71,490.69C536.42,490.00 536.59,488.95 536.11,488.18C535.66,487.44 528.88,485.55 520.90,483.94C512.98,482.33 505.28,481.01 503.78,481.01C502.29,481.00 498.20,482.57 494.70,484.50C488.84,487.72 487.66,488.00 479.88,488.00C475.23,488.00 464.58,486.88 456.20,485.50C447.82,484.12 439.40,483.00 437.48,483.00C435.57,483.00 434.00,483.37 434.00,483.82C434.00,484.26 432.27,485.60 430.16,486.79C428.05,487.98 423.43,489.63 419.91,490.46C416.38,491.29 410.11,491.98 405.97,491.99C401.83,491.99 396.20,491.38 393.47,490.61C390.74,489.85 387.06,488.64 385.31,487.92C382.40,486.72 379.57,487.20 353.31,493.32C337.46,497.01 319.87,500.92 314.21,502.01C308.56,503.11 301.52,504.00 298.58,504.00C295.34,504.00 290.73,503.05 286.87,501.57C283.37,500.24 269.48,494.31 256.00,488.41C233.68,478.62 230.86,477.63 224.25,477.25C220.17,477.02 209.25,477.80 199.26,479.03C186.51,480.60 179.31,481.02 173.65,480.53C169.32,480.15 160.31,478.98 153.64,477.92C146.96,476.86 135.05,475.06 127.17,473.92C119.29,472.78 112.20,472.09 111.42,472.39C110.64,472.69 110.00,473.38 110.00,473.93C110.00,474.48 111.69,475.37 113.75,475.92C115.81,476.47 133.93,480.31 154.00,484.47C174.07,488.62 204.90,494.74 222.50,498.05C240.10,501.37 264.62,506.30 277.00,509.01C289.38,511.72 300.85,514.34 302.50,514.83C304.15,515.32 305.40,516.21 305.27,516.79C305.15,517.37 306.95,518.56 309.27,519.42C311.60,520.29 323.18,523.22 335.00,525.93C346.82,528.65 360.55,531.76 365.50,532.85C370.45,533.94 375.09,534.87 375.80,534.91zM570.00,502.89C573.58,502.94 577.06,502.62 577.73,502.19C578.56,501.66 577.24,500.37 573.73,498.27C570.86,496.55 564.23,493.99 559.00,492.57C553.77,491.16 548.31,490.00 546.86,490.00C545.37,490.00 543.95,490.69 543.61,491.58C543.27,492.45 543.00,494.26 543.00,495.61C543.00,497.33 543.78,498.35 545.66,499.06C547.12,499.62 551.73,500.69 555.91,501.45C560.08,502.20 566.42,502.85 570.00,502.89zM297.90,496.96C298.13,496.98 304.43,495.84 311.90,494.42C319.38,493.00 337.69,488.97 352.59,485.45C367.48,481.94 380.42,478.78 381.34,478.42C382.25,478.07 383.00,477.27 382.99,476.64C382.99,476.01 381.77,474.94 380.29,474.25C378.81,473.56 377.00,473.00 376.26,473.00C375.52,473.00 373.95,472.10 372.77,471.00C371.59,469.90 369.33,469.00 367.75,469.00C366.16,469.00 364.00,469.47 362.93,470.04C361.87,470.60 361.00,471.43 361.00,471.87C361.00,472.32 362.10,473.18 363.43,473.79C365.07,474.53 366.95,474.59 369.14,473.96C371.26,473.35 372.77,473.37 373.42,474.02C374.08,474.68 373.92,475.51 372.94,476.49C372.13,477.30 367.20,478.88 361.98,480.00C356.77,481.12 343.27,483.85 332.00,486.06C320.73,488.27 309.70,490.23 307.50,490.42C305.30,490.61 300.88,491.10 297.67,491.53C291.84,492.30 291.84,492.30 294.67,494.61C296.23,495.89 297.68,496.94 297.90,496.96zM289.68,490.94C290.33,490.97 291.55,490.31 292.39,489.47C293.26,488.60 295.36,488.02 297.21,488.13C299.02,488.24 301.97,487.99 303.76,487.58C305.55,487.17 306.79,486.46 306.51,486.01C306.22,485.55 307.91,485.21 310.25,485.24C312.59,485.26 315.96,484.96 317.75,484.57C319.54,484.17 321.00,483.49 321.00,483.06C321.00,482.63 322.05,482.48 323.33,482.72C324.61,482.97 327.65,482.60 330.08,481.92C332.51,481.23 335.18,480.54 336.00,480.40C336.82,480.25 339.40,479.85 341.73,479.51C344.05,479.16 346.20,478.48 346.51,477.99C346.81,477.49 347.73,477.34 348.54,477.66C349.36,477.97 350.67,477.69 351.46,477.03C352.26,476.37 353.76,476.11 354.81,476.44C355.86,476.77 357.46,476.76 358.36,476.42C359.26,476.07 360.00,474.93 360.00,473.89C360.00,472.42 359.27,472.00 356.75,472.01C354.96,472.01 351.70,472.54 349.50,473.18C347.30,473.82 344.51,474.24 343.30,474.11C342.10,473.98 340.08,474.42 338.83,475.09C337.58,475.76 335.19,476.39 333.53,476.49C331.86,476.59 327.12,477.48 323.00,478.48C318.88,479.47 313.02,480.60 310.00,481.00C306.98,481.39 303.10,482.25 301.39,482.91C299.68,483.56 297.88,483.99 297.39,483.86C296.90,483.73 294.48,483.96 292.00,484.37C289.52,484.77 286.26,485.34 284.75,485.63C283.24,485.92 282.00,486.49 282.00,486.90C282.00,487.30 283.46,488.37 285.25,489.25C287.04,490.14 289.03,490.90 289.68,490.94zM274.83,485.00C275.62,485.00 277.99,484.48 280.10,483.85C282.21,483.22 283.70,482.32 283.41,481.85C283.12,481.38 283.33,481.00 283.88,481.00C284.43,481.00 285.17,481.47 285.53,482.04C285.88,482.61 287.03,482.81 288.08,482.47C289.14,482.14 291.35,481.83 293.00,481.78C294.65,481.73 296.00,481.31 296.00,480.85C296.00,480.38 297.57,480.00 299.50,480.00C301.43,480.00 303.00,479.65 303.00,479.23C303.00,478.80 301.43,477.61 299.51,476.57C296.22,474.80 295.79,474.79 292.26,476.31C290.19,477.21 287.15,478.06 285.50,478.22C283.58,478.40 282.60,478.99 282.79,479.87C282.99,480.82 282.53,481.03 281.29,480.54C280.31,480.15 278.15,479.61 276.50,479.34C274.64,479.04 272.74,479.45 271.50,480.43C269.52,481.98 269.52,482.02 271.44,483.50C272.51,484.32 274.03,485.00 274.83,485.00zM401.50,482.96C407.00,482.98 415.55,482.29 420.50,481.44C427.18,480.28 430.11,479.29 431.85,477.57C434.20,475.25 434.20,475.25 430.71,472.59C428.46,470.87 424.06,469.20 418.36,467.89C413.49,466.77 405.90,464.69 401.50,463.26C394.57,461.02 391.25,460.61 376.61,460.21C363.17,459.83 359.88,459.99 360.50,461.00C360.93,461.70 366.84,464.89 373.64,468.11C385.40,473.66 386.00,474.09 386.00,476.94C386.00,479.18 386.69,480.31 388.75,481.43C390.65,482.46 394.59,482.93 401.50,482.96zM264.75,478.93C266.81,478.89 269.33,478.53 270.34,478.14C271.82,477.55 271.10,476.88 266.65,474.71C263.61,473.22 259.82,472.00 258.23,472.00C256.64,472.00 255.03,472.30 254.66,472.67C254.30,473.04 254.74,474.16 255.65,475.17C256.56,476.18 258.14,477.00 259.15,477.00C260.17,477.00 261.00,477.45 261.00,478.00C261.00,478.55 262.69,478.97 264.75,478.93zM307.50,478.85C307.50,478.88 309.71,478.33 312.40,477.62C317.31,476.33 317.31,476.33 314.93,474.66C313.62,473.75 311.79,473.00 310.85,473.00C309.92,473.00 306.84,473.53 304.01,474.19C298.88,475.37 298.88,475.37 303.19,477.08C305.56,478.02 307.50,478.82 307.50,478.85zM276.62,475.92C278.34,475.96 281.16,475.72 282.88,475.38C284.59,475.03 286.00,474.41 286.00,473.98C286.00,473.56 284.24,472.51 282.10,471.66C279.82,470.74 276.80,470.32 274.84,470.64C272.25,471.06 271.04,470.71 269.58,469.09C268.54,467.94 267.88,467.00 268.10,467.00C268.33,467.00 270.00,467.43 271.81,467.95C273.63,468.47 275.78,468.64 276.58,468.33C277.71,467.90 277.79,467.45 276.90,466.38C276.27,465.62 276.05,465.00 276.41,465.00C276.77,465.00 278.13,465.70 279.43,466.55C280.89,467.50 282.75,467.85 284.33,467.45C286.16,466.99 286.70,466.36 286.25,465.16C285.75,463.82 285.91,463.72 287.06,464.65C287.85,465.29 289.40,465.90 290.50,466.02C291.60,466.13 293.09,466.18 293.81,466.12C294.53,466.05 294.90,465.65 294.63,465.22C294.37,464.79 297.33,464.34 301.22,464.22C305.11,464.10 308.92,463.48 309.69,462.84C310.46,462.20 313.06,461.75 315.47,461.84C317.92,461.94 320.43,461.44 321.17,460.71C321.95,459.96 324.48,459.49 327.25,459.59C329.86,459.69 332.00,459.40 332.00,458.95C332.00,458.50 333.46,458.34 335.25,458.60C337.04,458.86 339.12,458.66 339.88,458.15C340.66,457.62 340.93,456.69 340.49,455.98C339.93,455.08 337.90,454.91 333.11,455.39C329.47,455.74 321.13,456.62 314.56,457.33C307.03,458.15 302.47,459.08 302.21,459.86C301.90,460.79 301.47,460.81 300.41,459.93C299.36,459.06 297.08,459.04 291.26,459.88C286.99,460.49 276.98,461.70 269.00,462.57C261.02,463.44 252.57,464.27 250.21,464.41C247.84,464.55 245.18,465.39 244.29,466.28C243.01,467.56 242.92,468.20 243.87,469.34C244.53,470.13 245.94,471.01 247.01,471.29C248.09,471.57 250.49,471.03 252.35,470.08C254.68,468.89 256.43,468.62 258.01,469.20C259.26,469.66 261.09,469.79 262.06,469.48C263.03,469.17 264.12,469.39 264.47,469.96C264.83,470.53 266.33,471.04 267.81,471.08C269.29,471.12 269.94,471.38 269.25,471.66C268.56,471.94 268.00,472.54 268.00,473.00C268.00,473.46 269.24,474.29 270.75,474.84C272.26,475.39 274.91,475.88 276.62,475.92zM322.00,474.44C323.93,474.15 327.19,473.95 329.25,473.98C331.31,474.02 333.00,473.59 333.00,473.02C333.00,472.46 335.25,472.00 338.00,472.00C340.75,472.00 343.00,471.61 343.00,471.12C343.00,470.64 342.30,469.67 341.45,468.96C340.19,467.91 337.77,468.00 328.20,469.43C321.77,470.40 315.82,471.57 315.00,472.03C313.79,472.71 313.98,473.07 316.00,473.91C317.38,474.49 320.07,474.72 322.00,474.44zM290.08,473.99C290.95,474.00 291.98,473.68 292.37,473.30C292.76,472.91 294.86,472.55 297.04,472.49C299.22,472.44 301.57,471.83 302.25,471.15C303.23,470.17 303.18,469.72 301.99,468.97C301.17,468.45 300.78,468.02 301.13,468.02C301.47,468.01 303.40,468.69 305.40,469.52C308.04,470.62 309.57,470.76 310.95,470.03C312.00,469.47 314.57,469.06 316.68,469.12C318.78,469.18 321.76,468.73 323.31,468.12C324.86,467.50 325.85,466.57 325.53,466.04C325.18,465.47 326.19,465.52 328.00,466.15C329.73,466.75 333.04,466.92 335.61,466.54C338.48,466.11 339.99,465.42 339.71,464.68C339.40,463.87 340.88,463.49 344.38,463.47C347.20,463.45 350.79,463.09 352.36,462.67C355.13,461.93 355.17,461.84 353.46,459.95C352.49,458.88 350.69,458.00 349.47,458.00C348.25,458.00 345.45,458.64 343.25,459.41C341.04,460.19 335.70,461.37 331.37,462.03C327.04,462.69 322.82,463.37 322.00,463.54C321.18,463.71 319.24,463.88 317.69,463.92C315.91,463.97 315.13,464.40 315.57,465.11C316.04,465.87 315.33,466.01 313.29,465.56C311.67,465.21 308.35,465.41 305.92,466.02C303.49,466.62 299.48,467.29 297.00,467.51C294.52,467.73 290.93,468.18 289.00,468.53C287.07,468.87 284.85,469.36 284.05,469.62C283.01,469.96 283.44,470.65 285.55,472.04C287.17,473.11 289.21,473.99 290.08,473.99zM349.83,470.46C350.56,470.21 352.14,469.99 353.33,469.97C355.49,469.93 355.49,469.93 353.14,467.97C351.84,466.89 349.59,466.03 348.14,466.07C346.69,466.11 344.60,466.51 343.50,466.97C341.69,467.71 341.84,467.94 345.00,469.36C346.93,470.22 349.10,470.72 349.83,470.46zM361.42,468.73C362.48,468.60 363.52,467.96 363.74,467.31C363.95,466.65 362.75,465.41 361.07,464.54C359.25,463.60 357.00,463.21 355.51,463.59C354.13,463.93 353.00,464.64 353.00,465.16C353.00,465.67 354.46,466.74 356.25,467.53C358.04,468.32 360.36,468.86 361.42,468.73zM104.41,467.00C106.28,467.00 121.47,464.50 138.16,461.45C154.85,458.40 176.34,454.36 185.93,452.47C195.51,450.59 203.71,448.69 204.14,448.26C204.57,447.83 205.42,441.25 206.02,433.64C206.63,426.03 206.89,419.55 206.59,419.25C206.29,418.95 200.07,419.50 192.77,420.46C185.47,421.42 165.78,424.22 149.00,426.69C128.47,429.70 116.87,430.98 113.50,430.60C110.75,430.29 107.60,429.91 106.50,429.77C104.56,429.51 104.51,429.97 104.88,446.15C105.24,462.29 105.19,462.83 103.13,463.93C101.96,464.56 101.00,465.50 101.00,466.04C101.00,466.57 102.53,467.00 104.41,467.00zM582.38,451.98C582.86,451.99 582.97,449.86 582.62,447.25C582.27,444.64 581.42,440.29 580.74,437.60C579.50,432.70 579.50,432.70 569.00,430.34C563.23,429.04 557.83,428.14 557.00,428.34C556.01,428.59 558.37,431.51 564.00,437.02C568.67,441.59 574.52,446.82 577.00,448.64C579.48,450.46 581.90,451.96 582.38,451.98zM252.12,440.00C253.21,440.00 268.82,437.53 286.80,434.52C304.79,431.51 323.72,428.12 328.89,426.98C334.05,425.85 339.12,424.47 340.16,423.91C341.20,423.36 343.85,420.95 346.06,418.56C348.47,415.94 353.08,412.72 357.63,410.47C364.84,406.91 365.70,406.72 375.85,406.58C381.71,406.50 387.06,406.08 387.75,405.66C388.52,405.18 389.00,402.61 389.00,398.94C389.00,395.42 388.57,393.00 387.94,393.00C387.35,393.00 376.44,394.36 363.69,396.02C350.93,397.68 331.95,400.40 321.50,402.07C311.05,403.73 291.48,406.88 278.00,409.05C264.52,411.23 252.21,413.28 250.63,413.61C247.76,414.21 247.76,414.21 248.44,425.36C248.81,431.49 249.35,437.29 249.63,438.25C249.91,439.21 251.03,440.00 252.12,440.00zM533.05,426.45C534.74,424.84 538.72,419.69 541.91,415.01C545.11,410.33 549.58,403.09 551.85,398.93C554.12,394.76 556.89,388.73 557.99,385.52C559.32,381.66 560.00,377.12 559.99,372.09C559.98,367.92 559.37,362.25 558.64,359.50C557.90,356.75 556.05,352.03 554.51,349.01C552.98,345.99 548.79,340.48 545.20,336.76C538.78,330.12 538.72,330.00 541.59,329.99C543.19,329.99 549.00,328.69 554.50,327.10C560.00,325.51 569.16,322.59 574.85,320.60C580.55,318.62 588.20,316.29 591.85,315.42C595.51,314.56 603.90,313.62 610.50,313.35C617.10,313.07 623.16,312.63 623.97,312.37C625.23,311.96 625.23,311.76 624.04,311.02C623.26,310.54 618.99,309.61 614.54,308.95C609.51,308.20 600.59,307.94 590.97,308.25C579.66,308.62 573.37,309.33 567.59,310.88C563.25,312.04 555.60,314.88 550.59,317.18C545.59,319.48 539.48,322.53 537.00,323.96C534.52,325.39 529.40,327.86 525.61,329.45C521.82,331.04 516.99,334.00 514.86,336.02C512.74,338.04 511.00,340.23 511.00,340.89C511.00,341.61 512.67,341.11 515.25,339.59C517.59,338.22 521.34,336.81 523.58,336.45C526.66,335.96 528.93,336.35 532.84,338.03C535.69,339.25 539.36,341.79 541.01,343.66C542.66,345.54 545.20,349.42 546.65,352.29C548.11,355.15 549.90,359.75 550.64,362.50C551.37,365.25 551.98,370.91 551.99,375.07C551.99,379.23 551.27,385.08 550.39,388.07C549.50,391.05 547.19,396.65 545.26,400.50C543.33,404.35 539.10,412.09 535.87,417.70C532.64,423.31 530.00,428.23 530.00,428.63C530.00,429.04 531.37,428.06 533.05,426.45zM349.13,424.90C349.47,424.96 350.27,424.38 350.90,423.62C351.52,422.87 353.90,421.95 356.18,421.59C359.02,421.13 360.00,420.60 359.30,419.90C358.59,419.19 356.42,419.38 352.38,420.50C349.15,421.40 345.82,422.39 345.00,422.71C343.91,423.12 344.18,423.48 346.00,424.04C347.38,424.46 348.78,424.85 349.13,424.90zM572.00,421.90C573.92,421.94 576.62,421.40 577.99,420.71C579.36,420.02 580.64,418.61 580.84,417.58C581.14,416.05 580.77,415.83 578.85,416.36C577.56,416.71 573.35,417.50 569.50,418.11C565.65,418.71 562.34,419.36 562.14,419.55C561.94,419.73 563.29,420.32 565.14,420.85C566.99,421.38 570.08,421.85 572.00,421.90zM477.00,412.30C478.93,412.05 481.11,411.26 481.86,410.53C483.00,409.43 482.89,408.89 481.21,407.21C479.32,405.32 477.92,405.21 455.67,405.26C442.72,405.29 431.53,405.69 430.81,406.15C429.75,406.84 429.79,407.19 431.00,407.98C431.82,408.53 434.13,408.98 436.11,408.98C438.10,408.99 442.15,409.49 445.11,410.10C448.08,410.70 455.68,411.55 462.00,411.97C468.32,412.40 475.07,412.55 477.00,412.30zM192.46,408.70C194.68,408.41 206.85,406.60 219.50,404.67C232.15,402.74 254.88,399.56 270.00,397.61C285.12,395.66 299.98,393.80 303.00,393.49C308.50,392.91 308.50,392.91 316.61,376.46C324.31,360.84 324.61,360.00 322.38,360.00C321.09,360.00 312.04,360.92 302.27,362.04C292.50,363.16 280.23,364.75 275.00,365.58C269.77,366.41 262.57,367.46 259.00,367.93C255.43,368.39 236.07,370.66 216.00,372.97C195.93,375.28 179.33,377.34 179.12,377.54C178.92,377.75 180.42,384.35 182.47,392.21C184.52,400.07 186.70,407.11 187.31,407.86C188.06,408.77 189.74,409.04 192.46,408.70zM260.34,388.00C257.69,388.00 255.79,387.50 255.56,386.75C255.35,386.06 254.92,384.03 254.61,382.23C254.19,379.81 254.54,378.46 255.95,377.05C257.01,375.99 258.62,373.98 259.55,372.57C260.47,371.16 261.62,370.00 262.09,370.00C262.56,370.00 262.69,371.29 262.38,372.86C261.91,375.18 262.20,375.82 263.90,376.26C265.32,376.63 266.00,377.62 266.00,379.28C266.00,380.64 265.72,383.16 265.38,384.88C264.79,387.81 264.48,388.00 260.34,388.00zM123.83,380.94C124.56,380.97 123.56,379.14 121.62,376.87C119.32,374.18 117.87,371.30 117.48,368.62C117.15,366.35 117.03,328.05 117.20,283.50C117.50,206.11 117.60,202.30 119.44,198.00C121.09,194.15 121.45,190.17 121.94,170.42C122.50,147.34 122.50,147.34 125.30,143.67C126.84,141.65 127.60,140.00 126.99,140.00C126.37,140.00 124.89,140.51 123.68,141.12C122.48,141.74 120.44,143.21 119.15,144.37C117.87,145.54 116.09,147.85 115.22,149.50C113.93,151.93 113.49,157.77 112.91,180.00C112.51,195.12 111.86,220.32 111.47,236.00C110.75,264.50 110.75,264.50 107.98,267.50C106.46,269.15 104.26,272.41 103.09,274.75C101.92,277.08 100.69,280.96 100.36,283.37C100.03,285.78 100.21,288.56 100.76,289.54C101.31,290.52 103.28,291.81 105.13,292.41C108.50,293.50 108.50,293.50 108.79,301.37C109.04,307.82 108.76,309.60 107.29,311.23C106.03,312.62 105.52,314.74 105.57,318.36C105.61,321.19 106.42,325.00 107.39,326.84C108.35,328.67 109.78,333.17 110.55,336.84C111.33,340.50 111.97,348.90 111.98,355.51C111.99,362.11 112.44,369.04 112.98,370.92C113.51,372.79 114.98,375.42 116.23,376.77C117.48,378.12 119.40,379.59 120.50,380.05C121.60,380.50 123.10,380.90 123.83,380.94zM134.45,363.00C134.62,363.00 150.45,361.22 169.63,359.05C188.81,356.88 214.85,353.96 227.50,352.57C240.15,351.17 261.98,348.89 276.00,347.51C290.02,346.12 315.90,343.41 333.50,341.48C351.10,339.55 366.06,337.76 366.75,337.51C367.74,337.16 368.00,318.96 368.00,251.09C368.00,192.38 367.67,164.91 366.95,164.47C366.38,164.12 355.02,162.99 341.70,161.97C328.39,160.95 301.75,159.19 282.50,158.07C263.25,156.94 232.20,155.34 213.50,154.50C194.80,153.66 172.97,152.54 165.00,152.01C157.03,151.49 146.12,150.94 140.76,150.80C132.78,150.60 130.72,150.85 129.36,152.22C127.85,153.72 127.71,157.86 127.89,195.69C128.00,218.69 128.74,262.93 129.53,294.00C130.33,325.07 130.98,352.61 130.99,355.18C131.00,358.09 131.59,360.45 132.57,361.43C133.44,362.29 134.28,363.00 134.45,363.00zM380.53,326.00C381.35,326.00 386.18,325.35 391.26,324.56C396.34,323.77 407.93,322.65 417.00,322.06C426.07,321.47 437.21,320.72 441.75,320.40C446.28,320.08 450.29,319.34 450.65,318.76C451.01,318.17 450.54,317.14 449.61,316.46C448.68,315.78 445.57,314.93 442.69,314.57C439.82,314.21 430.28,314.40 421.48,315.00C412.69,315.60 399.47,316.96 392.11,318.02C384.75,319.08 378.50,320.16 378.24,320.43C377.98,320.69 378.05,322.05 378.40,323.45C378.75,324.85 379.71,326.00 380.53,326.00zM388.01,312.00C389.14,312.00 390.22,311.44 390.41,310.75C390.60,310.06 391.31,305.91 391.98,301.52C392.66,297.13 394.10,290.60 395.19,287.02C396.28,283.43 398.69,277.31 400.55,273.41C402.40,269.51 405.68,264.51 407.84,262.29C411.76,258.25 411.76,258.25 405.40,248.87C401.91,243.72 397.70,236.12 396.06,232.00C394.42,227.88 391.49,218.97 389.56,212.21C387.62,205.46 385.56,199.05 384.98,197.96C384.40,196.88 383.48,196.00 382.93,196.00C382.39,196.00 381.67,196.70 381.34,197.55C381.01,198.40 383.49,207.52 386.85,217.80C391.00,230.50 394.57,239.36 397.98,245.41C400.74,250.31 403.00,254.47 403.00,254.66C403.00,254.85 399.20,255.00 394.56,255.00C389.92,255.00 385.84,254.55 385.50,254.00C385.16,253.45 385.36,253.00 385.94,253.00C386.52,253.00 387.00,251.90 387.00,250.56C387.00,249.17 386.04,247.44 384.78,246.56C383.56,245.70 381.76,245.00 380.78,245.00C379.58,245.00 379.00,245.77 379.00,247.37C379.00,248.67 379.93,250.92 381.08,252.37C383.15,255.01 383.15,255.01 378.72,256.91C376.28,257.95 374.06,259.41 373.78,260.15C373.50,260.89 373.88,263.98 374.62,267.00C375.35,270.02 377.73,280.15 379.89,289.50C382.05,298.85 384.30,307.74 384.88,309.25C385.57,311.01 386.69,312.00 388.01,312.00zM560.88,305.00C561.36,305.00 564.39,303.83 567.63,302.40C570.86,300.97 576.65,299.11 580.50,298.27C584.90,297.31 592.43,296.76 600.75,296.80C614.00,296.84 614.00,296.84 614.00,294.42C614.00,293.09 613.10,291.10 612.00,290.00C610.23,288.23 608.68,288.00 598.75,288.02C592.56,288.03 584.51,288.67 580.86,289.44C577.21,290.22 571.90,291.85 569.07,293.06C566.24,294.28 563.04,296.40 561.96,297.77C560.88,299.15 560.00,301.33 560.00,302.63C560.00,303.94 560.39,305.00 560.88,305.00zM388.60,294.73C388.29,295.05 387.28,293.55 386.38,291.40C385.47,289.26 384.68,285.02 384.61,282.00C384.50,276.50 384.50,276.50 388.75,276.19C391.09,276.02 392.99,276.25 392.97,276.69C392.96,277.14 392.10,281.25 391.07,285.83C390.03,290.40 388.92,294.41 388.60,294.73zM562.75,292.83C563.16,292.65 566.75,290.70 570.73,288.50C574.71,286.30 577.97,284.16 577.98,283.75C577.99,283.34 577.09,283.00 575.97,283.00C574.85,283.00 572.27,283.70 570.23,284.55C568.19,285.40 565.51,287.05 564.26,288.22C563.02,289.39 562.00,290.98 562.00,291.76C562.00,292.53 562.34,293.02 562.75,292.83zM572.66,266.00C573.40,266.00 575.70,264.46 577.78,262.58C579.86,260.70 582.56,257.16 583.78,254.72C585.00,252.28 586.00,248.79 586.00,246.97C586.00,245.15 585.26,242.83 584.35,241.83C583.43,240.82 581.63,240.00 580.35,240.00C579.06,240.00 578.00,240.22 578.00,240.50C578.00,240.78 578.90,241.90 580.00,243.00C581.10,244.10 582.00,246.09 582.00,247.43C582.00,248.76 581.39,250.45 580.64,251.18C579.89,251.91 577.19,254.44 574.64,256.81C572.09,259.17 570.00,261.91 570.00,262.89C570.00,263.87 570.30,264.97 570.67,265.33C571.03,265.70 571.93,266.00 572.66,266.00zM539.26,249.00C539.73,249.00 542.19,247.04 544.72,244.65C547.90,241.64 549.13,239.79 548.70,238.65C548.35,237.74 547.12,237.00 545.96,237.00C544.81,237.00 542.10,238.46 539.95,240.25C537.80,242.04 536.03,244.20 536.02,245.05C536.01,245.90 536.54,247.14 537.20,247.80C537.86,248.46 538.79,249.00 539.26,249.00zM383.00,239.95C383.27,239.96 384.00,239.64 384.60,239.23C385.21,238.83 386.25,237.47 386.91,236.20C387.83,234.46 387.86,232.63 387.02,228.58C386.41,225.66 385.33,222.46 384.61,221.48C383.66,220.19 382.59,219.89 380.66,220.37C379.20,220.74 378.00,221.65 378.00,222.40C378.00,223.16 379.12,224.51 380.50,225.41C381.88,226.31 382.99,227.60 382.98,228.27C382.97,228.95 382.08,230.62 381.00,232.00C379.92,233.38 379.03,235.27 379.02,236.20C379.01,237.14 379.79,238.36 380.75,238.92C381.71,239.48 382.73,239.95 383.00,239.95zM560.19,228.92C561.12,228.96 562.17,228.54 562.51,227.98C562.86,227.42 562.62,225.39 561.99,223.48C560.99,220.45 561.12,219.54 562.94,216.60C564.09,214.74 566.59,212.02 568.50,210.57C570.41,209.11 574.34,206.82 577.23,205.48C580.13,204.14 586.77,202.09 592.00,200.93C597.23,199.77 602.17,198.59 603.00,198.30C604.19,197.89 604.09,197.61 602.50,196.96C601.40,196.51 597.80,196.12 594.50,196.09C591.20,196.06 586.02,196.67 583.00,197.46C579.98,198.24 572.52,200.60 566.44,202.69C560.35,204.79 554.22,207.26 552.81,208.19C551.40,209.13 548.67,212.73 546.75,216.19C544.29,220.63 543.55,222.87 544.25,223.75C544.80,224.44 546.43,225.01 547.87,225.03C549.32,225.04 552.30,225.90 554.50,226.95C556.70,227.99 559.26,228.87 560.19,228.92zM381.20,215.00C381.64,215.00 381.99,213.76 381.98,212.25C381.98,210.74 381.58,208.88 381.10,208.12C380.62,207.36 379.72,207.05 379.11,207.43C378.50,207.81 378.00,209.13 378.00,210.36C378.00,211.59 378.54,213.14 379.20,213.80C379.86,214.46 380.76,215.00 381.20,215.00zM419.25,198.87C422.41,198.94 425.00,198.60 425.00,198.10C425.00,197.61 422.15,196.71 418.67,196.10C415.19,195.50 408.10,195.01 402.92,195.03C396.89,195.05 394.05,195.38 395.03,195.96C395.87,196.45 400.37,197.27 405.03,197.79C409.69,198.31 416.09,198.79 419.25,198.87z"/>
</svg>